<?xml version="1.0" standalone="no"?>
<!DOCTYPE svg PUBLIC "-//W3C//DTD SVG 20010904//EN"
 "http://www.w3.org/TR/2001/REC-SVG-20010904/DTD/svg10.dtd">
<svg version="1.0" xmlns="http://www.w3.org/2000/svg"
 width="51.000000pt" height="77.000000pt" viewBox="0 0 51.000000 77.000000"
 preserveAspectRatio="xMidYMid meet">

<g transform="translate(0.000000,77.000000) scale(0.100000,-0.100000)"
fill="#000000" stroke="none">
<path d="M310 576 c0 -7 7 -19 15 -26 8 -7 15 -23 15 -36 0 -12 6 -29 14 -36
11 -12 11 -17 0 -33 -8 -10 -14 -29 -14 -42 0 -32 -35 -31 -56 2 -15 23 -54
36 -54 18 1 -21 58 -74 85 -79 39 -7 76 21 80 60 2 15 9 34 16 42 9 11 9 20 1
37 -6 12 -13 35 -17 50 -4 20 -16 33 -40 43 -42 17 -45 17 -45 0z"/>
<path d="M110 531 c-5 -11 -10 -31 -10 -45 0 -14 -4 -26 -10 -26 -13 0 -13
-33 -1 -46 5 -5 11 -24 13 -43 2 -27 10 -38 38 -53 35 -18 35 -18 38 3 2 13
-3 26 -12 31 -9 5 -16 21 -16 36 0 16 -5 33 -11 39 -8 8 -8 13 0 17 6 4 11 20
11 36 0 35 20 50 34 26 21 -34 31 -44 54 -51 l23 -7 -26 51 c-25 50 -26 51
-70 51 -34 0 -47 -5 -55 -19z"/>
</g>
</svg>
